<svg width="731" height="468" viewBox="0 0 731 468" fill="none" xmlns="http://www.w3.org/2000/svg">
<path d="M81.2844 269.122C78.6319 235.819 -12.4399 173.018 17.6226 139.398C47.6851 105.777 711.713 94.9933 723.208 139.398C734.702 183.802 698.008 197.441 655.567 262.145C613.126 326.848 766.533 420.732 723.208 446.106C679.882 471.48 56.5272 481.63 10.5492 438.494C-35.4288 395.358 83.937 302.426 81.2844 269.122Z" fill="#203870" fill-opacity="0.82"/>
<circle cx="564.5" cy="74.5" r="12" stroke="#4367BC" stroke-width="5"/>
<circle cx="557.5" cy="162.5" r="6" stroke="#4367BC" stroke-width="3"/>
<circle cx="119.5" cy="162.5" r="6" stroke="#4367BC" stroke-width="3"/>
<circle cx="91.5" cy="89.5" r="6" stroke="#4367BC" stroke-width="3"/>
<circle cx="564.5" cy="410.5" r="6" stroke="#4367BC" stroke-width="3"/>
<circle cx="193.5" cy="437.5" r="6" stroke="#4367BC" stroke-width="3"/>
<circle cx="39.5" cy="374.5" r="12" stroke="#4367BC" stroke-width="5"/>
<circle cx="716.5" cy="388.5" r="12" stroke="#4367BC" stroke-width="5"/>
<rect x="152" y="71.9517" width="278" height="401" rx="20" transform="rotate(-15 152 71.9517)" fill="#80A5FF" fill-opacity="0.5"/>
<rect x="164" y="71.9517" width="278" height="401" rx="20" transform="rotate(-15 164 71.9517)" fill="#D1DFFF"/>
<line x1="217.5" y1="139.694" x2="419.379" y2="85.6009" stroke="black" stroke-opacity="0.64" stroke-width="4"/>
<line x1="222.455" y1="158.037" x2="424.334" y2="103.944" stroke="black" stroke-opacity="0.64" stroke-width="4"/>
<line x1="228.973" y1="182.172" x2="430.852" y2="128.079" stroke="black" stroke-opacity="0.64" stroke-width="4"/>
<line x1="236.274" y1="209.204" x2="438.152" y2="155.111" stroke="black" stroke-opacity="0.64" stroke-width="4"/>
<line x1="259.219" y1="294.16" x2="461.097" y2="240.067" stroke="black" stroke-opacity="0.64" stroke-width="4"/>
<line x1="266.766" y1="322.898" x2="400.583" y2="287.042" stroke="black" stroke-opacity="0.64" stroke-width="4"/>
</svg>
