<svg width="731" height="469" viewBox="0 0 731 469" fill="none" xmlns="http://www.w3.org/2000/svg">
<path d="M81.2844 270.122C78.6319 236.819 -12.4399 174.018 17.6226 140.398C47.6851 106.777 711.713 95.9933 723.208 140.398C734.702 184.802 698.008 198.441 655.567 263.145C613.126 327.848 766.533 421.732 723.208 447.106C679.882 472.48 56.5272 482.63 10.5492 439.494C-35.4288 396.358 83.937 303.426 81.2844 270.122Z" fill="#621E1E" fill-opacity="0.82"/>
<circle cx="564.5" cy="75.5" r="12" stroke="#BC4343" stroke-width="5"/>
<circle cx="557.5" cy="163.5" r="6" stroke="#BC4343" stroke-width="3"/>
<circle cx="119.5" cy="163.5" r="6" stroke="#BC4343" stroke-width="3"/>
<circle cx="91.5" cy="90.5" r="6" stroke="#BC4343" stroke-width="3"/>
<circle cx="564.5" cy="411.5" r="6" stroke="#BC4343" stroke-width="3"/>
<circle cx="193.5" cy="438.5" r="6" stroke="#BC4343" stroke-width="3"/>
<circle cx="39.5" cy="375.5" r="12" stroke="#BC4343" stroke-width="5"/>
<circle cx="716.5" cy="389.5" r="12" stroke="#BC4343" stroke-width="5"/>
<rect x="166" y="71.9517" width="278" height="401" rx="20" transform="rotate(-15 166 71.9517)" fill="#FF9191" fill-opacity="0.5"/>
<rect x="178" y="71.9517" width="278" height="401" rx="20" transform="rotate(-15 178 71.9517)" fill="#FFD1D1"/>
<path d="M372.653 168.384L326.336 180.795L302.384 222.282L314.794 268.599L356.281 292.551L402.598 280.141L426.551 238.654L414.14 192.337L372.653 168.384ZM412.753 236.828L394.118 269.104L358.107 278.753L325.831 260.118L316.182 224.108L334.817 191.831L370.827 182.182L403.104 200.817L412.753 236.828Z" fill="#A60000"/>
<path d="M372.785 261.511C376.214 260.592 378.249 257.068 377.33 253.639C376.412 250.21 372.887 248.175 369.458 249.094C366.029 250.012 363.994 253.537 364.913 256.966C365.832 260.395 369.356 262.43 372.785 261.511Z" fill="#A60000"/>
<path d="M349.941 201.088L362.358 197.761L374.004 241.221L361.586 244.549L349.941 201.088Z" fill="#A60000"/>
</svg>
