<svg width="731" height="469" viewBox="0 0 731 469" fill="none" xmlns="http://www.w3.org/2000/svg">
<path d="M81.2844 270.122C78.6319 236.819 -12.4399 174.018 17.6226 140.398C47.6851 106.777 711.713 95.9933 723.208 140.398C734.702 184.802 698.008 198.441 655.567 263.145C613.126 327.848 766.533 421.732 723.208 447.106C679.882 472.48 56.5272 482.63 10.5492 439.494C-35.4288 396.358 83.937 303.426 81.2844 270.122Z" fill="#203870" fill-opacity="0.82"/>
<circle cx="564.5" cy="75.5" r="12" stroke="#4367BC" stroke-width="5"/>
<circle cx="557.5" cy="163.5" r="6" stroke="#4367BC" stroke-width="3"/>
<circle cx="119.5" cy="163.5" r="6" stroke="#4367BC" stroke-width="3"/>
<circle cx="91.5" cy="90.5" r="6" stroke="#4367BC" stroke-width="3"/>
<circle cx="564.5" cy="411.5" r="6" stroke="#4367BC" stroke-width="3"/>
<circle cx="193.5" cy="438.5" r="6" stroke="#4367BC" stroke-width="3"/>
<circle cx="39.5" cy="375.5" r="12" stroke="#4367BC" stroke-width="5"/>
<circle cx="716.5" cy="389.5" r="12" stroke="#4367BC" stroke-width="5"/>
<rect x="166" y="71.9517" width="278" height="401" rx="20" transform="rotate(-15 166 71.9517)" fill="#80A5FF" fill-opacity="0.5"/>
<rect x="178" y="71.9517" width="278" height="401" rx="20" transform="rotate(-15 178 71.9517)" fill="#D1DFFF"/>
<g clip-path="url(#clip0_13008_7)">
<path d="M359.905 165.306C329.966 175.023 313.568 207.179 323.285 237.118L305.213 242.984L336.252 258.812L336.947 259.518L353.405 227.343L335.333 233.208C327.767 209.895 340.503 184.921 363.815 177.354C387.128 169.788 412.103 182.524 419.669 205.837C427.236 229.149 414.5 254.124 391.187 261.69C379.561 265.464 367.474 264.126 357.401 258.939L351.623 270.27C364.629 276.902 380.097 278.607 395.097 273.738C425.037 264.021 441.434 231.866 431.717 201.926C422 171.987 389.845 155.589 359.905 165.306ZM363.657 197.381L373.432 227.501L403.961 234.373L406.097 225.157L380.807 219.448L372.693 194.449L363.657 197.381Z" fill="black"/>
</g>
<defs>
<clipPath id="clip0_13008_7">
<rect width="152" height="152" fill="white" transform="translate(275.728 172.651) rotate(-17.981)"/>
</clipPath>
</defs>
</svg>
